<?xml version="1.0" standalone="no"?>

<svg viewBox="0 0 200 200" xmlns="http://www.w3.org/2000/svg">
  <path fill="#F97302" d="M41.1,-70.4C54.1,-63.7,65.9,-54.3,67.6,-42.1C69.4,-29.9,61,-15,61.8,0.4C62.6,15.8,72.4,31.7,69.7,42.2C67,52.7,51.7,57.9,38,64C24.3,70,12.1,77,-0.1,77.3C-12.4,77.5,-24.9,71.1,-39.3,65.4C-53.7,59.7,-70.1,54.9,-76.5,44.1C-82.9,33.3,-79.2,16.7,-78.7,0.3C-78.2,-16.1,-80.8,-32.1,-73.4,-41.1C-66,-50.1,-48.5,-52,-34.6,-58.1C-20.7,-64.2,-10.4,-74.4,1.9,-77.7C14.1,-80.9,28.2,-77,41.1,-70.4Z" transform="translate(100 100)" />
</svg>