<?xml version="1.0" standalone="no"?>


<svg viewBox="0 0 200 200" xmlns="http://www.w3.org/2000/svg">
  <path fill="#F97302" d="M30,-54C36.2,-48.3,36.7,-34.9,42.3,-24.6C48,-14.3,58.9,-7.2,64,3C69.1,13.1,68.5,26.1,60.1,31.8C51.8,37.5,35.7,35.8,24.4,36.7C13.1,37.6,6.6,41.2,-3.3,47C-13.2,52.8,-26.5,60.8,-39,60.6C-51.6,60.4,-63.4,51.9,-69.4,40.4C-75.5,28.9,-75.8,14.5,-72.1,2.2C-68.3,-10.1,-60.5,-20.3,-54.4,-31.8C-48.4,-43.4,-44.2,-56.3,-35.4,-60.5C-26.7,-64.7,-13.3,-60.2,-0.7,-58.9C11.9,-57.7,23.8,-59.7,30,-54Z" transform="translate(100 100)" />
</svg>